<svg xmlns="http://www.w3.org/2000/svg" viewBox="0 0 368.14 61" style="fill:#000D14;" width="368px" height="61px"><title>Asset 4</title><g id="Layer_2" data-name="Layer 2"><g id="Layer_1-2" data-name="Layer 1"><path d="M7.81,30.5A22.69,22.69,0,1,1,30.5,53.19,22.69,22.69,0,0,1,7.81,30.5M0,30.5A30.5,30.5,0,1,0,30.5,0,30.51,30.51,0,0,0,0,30.5" style="fill:#000D14;"/><path d="M100.85,25.19a6.94,6.94,0,0,1,2.86.57v-8a7.84,7.84,0,0,0-2.29-.29,8.32,8.32,0,0,0-6.29,3.15L94,17.75H88.26V44.08H96V30.63c0-3.44,2-5.44,4.86-5.44m32.34,18.89h7.73V28.63c0-6.87-4.3-11.17-10-11.17-5.15,0-7.44,2.87-7.44,2.87V8h-7.73V44.08h7.73v-14c0-3.44,2-5.44,4.86-5.44s4.87,2,4.87,5.44ZM173.05,31a6.59,6.59,0,1,1-8.6-6.27,5.49,5.49,0,0,1,1.91-.35,5.1,5.1,0,0,1,1.11.12,6.59,6.59,0,0,1,5.58,6.5m6.68-13.2H174l-.58,1.46a13.36,13.36,0,0,0-7.07-2A13.5,13.5,0,0,0,152.9,30.92a13.5,13.5,0,0,0,13.46,13.73,13.33,13.33,0,0,0,7.07-2l.58,1.46h5.72ZM213,31a6.59,6.59,0,1,1-6.59-6.59A6.58,6.58,0,0,1,213,31m6.38,0c0-7.73-5.73-13.46-12.31-13.46a11.21,11.21,0,0,0-7.44,2.87l-1.14-2.58h-5.73V53.24h7.73V42.08A10.58,10.58,0,0,0,207,44.37c6.58,0,12.31-5.73,12.31-13.45m20-5.44c0-1.15.86-2,2.57-2a3.17,3.17,0,0,1,3.15,2.29l7.44-.57c-.86-4.58-4.29-8-11.16-8-6.29,0-10,3.72-10,8,0,9.45,13.45,8,13.45,10.88,0,1.14-1.15,2.29-3.15,2.29a3.21,3.21,0,0,1-3.44-2.87l-7.44.58c.86,5.15,4.3,8.58,11.45,8.58,6.58,0,10.59-4,10.59-8.3,0-9.44-13.45-8-13.45-10.87M284.24,31a6.59,6.59,0,1,1-7.77-6.48,5.61,5.61,0,0,1,1.24-.14,5.4,5.4,0,0,1,1.75.29A6.58,6.58,0,0,1,284.24,31m6.92,0a13.45,13.45,0,1,0-26.9,0,13.45,13.45,0,1,0,26.9,0m31.47,0A6.59,6.59,0,1,1,316,24.36,6.58,6.58,0,0,1,322.63,31m.86,13.13h5.73V8h-7.73V19.75a10.61,10.61,0,0,0-6.58-2.29c-6.58,0-12.31,5.73-12.31,13.46s5.73,13.45,12.31,13.45a11.21,11.21,0,0,0,7.44-2.87Zm44.65-26.33h-8.3l-5.73,16.31-5.72-16.31h-8.3l10,25.18c-.86,2.29-2.29,3.72-5.44,3.72v6.59a16.15,16.15,0,0,0,2.58.28c4.86,0,7.67-2.86,10.3-9.44Z" style="fill:#000D14;"/></g></g></svg>